# xmcd
#
# Track frame offsets:
#	150
#	16516
#	32854
#	48405
#	61462
#	76351
#	93577
#	111364
#	129785
#	157042
#	173906
#	192915
#	212018
#
# Disc length: 3021 seconds
#
# Revision: 0
# Processed by: cddbd v1.5.1PL0 Copyright (c) Steve Scherf et al.
# Submitted via: audiograbber 1.83.01
#
DISCID=a80bcb0d
DTITLE=Ron Brumfield - Someone Has Touched Me Today
DYEAR=2001
DGENRE=Southern Gospel
TTITLE0=A Cross Standing In My Way
TTITLE1=I Just Want To Praise Him
TTITLE2=I Call It Home
TTITLE3=The Great Speckled Bird
TTITLE4=Let Down Your Net
TTITLE5=Home
TTITLE6=Just A Carpenter
TTITLE7=House Of Gold
TTITLE8=Calvary's The Reason Why
TTITLE9=The Old Rugged Cross
TTITLE10=Someone Has Touched Me Today
TTITLE11=Come On In
TTITLE12=I Could Of Missed It All
EXTD=
EXTT0=
EXTT1=
EXTT2=
EXTT3=
EXTT4=
EXTT5=
EXTT6=
EXTT7=
EXTT8=
EXTT9=
EXTT10=
EXTT11=
EXTT12=
PLAYORDER=
